<svg width="126" height="136" viewBox="0 0 126 136" fill="none" xmlns="http://www.w3.org/2000/svg">
<circle cx="62.8915" cy="72.5492" r="62.8915" fill="#F26F3B"/>
<path d="M102.487 84.6617C109.996 90.4756 125.037 83.6543 123.645 88.8544C116.462 115.684 91.9822 135.441 62.8874 135.441C33.7926 135.441 9.31221 115.684 2.13014 88.8544C0.738105 83.6543 15.5025 89.5983 21.4272 84.6617C35.4046 73.0151 27.949 55.3123 27.949 49.7219C27.949 45.0633 28.8935 44.6655 28.881 37.6095C28.8594 25.5048 19.4914 26.3103 26.0842 21.5448C36.4313 14.0657 49.1446 9.65771 62.8874 9.65771C76.6302 9.65771 89.3435 14.0657 99.6906 21.5448C104.536 25.047 94.2994 31.3189 94.5692 37.6095C94.8702 44.6283 96.8985 45.5292 96.8985 49.7219C96.8985 53.9147 88.9771 74.2016 102.487 84.6617Z" fill="#DE6637"/>
<mask id="mask0_328_299" style="mask-type:alpha" maskUnits="userSpaceOnUse" x="0" y="9" width="126" height="127">
<circle cx="62.8915" cy="72.5492" r="62.8915" fill="#D9D9D9"/>
</mask>
<g mask="url(#mask0_328_299)">
<path d="M4.65085 115.695C4.10066 105.474 10.2411 96.0772 19.8224 92.4767L31.5217 88.0803L38.7176 86.4289C40.5518 86.0079 42.4277 85.7954 44.3097 85.7954H84.0521C86.3989 85.7954 88.734 86.1258 90.9886 86.777L95.5016 88.0803L106.471 92.5517C115.333 96.1639 121.126 104.781 121.126 114.351C121.126 127.352 110.587 137.891 97.5856 137.891H28.0736C15.6088 137.891 5.32089 128.142 4.65085 115.695Z" fill="#242525"/>
<path d="M94.344 110.374C93.2974 116.615 94.3442 132.459 94.3442 132.459C94.3442 132.459 108.169 128.708 107.445 121.416C106.79 114.814 95.4427 103.821 94.344 110.374Z" fill="#548BED"/>
<path d="M11.611 96.3587C13.436 94.7986 24.6921 89.6741 38.8586 86.6401L55.4381 96.3587C55.4381 96.3587 39.0034 94.5273 34.4744 103.65C31.3222 109.999 33.0769 130.67 33.0769 130.67L5.84654 116.524C5.84654 116.524 3.74949 103.079 11.611 96.3587Z" fill="#CE6F55"/>
<path d="M11.611 96.3587C13.436 94.7986 24.6921 89.6741 38.8586 86.6401L55.4381 96.3587C55.4381 96.3587 39.0034 94.5273 34.4744 103.65C31.3222 109.999 33.0769 130.67 33.0769 130.67L5.84654 116.524C5.84654 116.524 3.74949 103.079 11.611 96.3587Z" fill="#0E0E0E"/>
<path d="M8.3868 100.389C12.707 94.5253 12.5798 92.4692 20.0336 100.855L20.0903 100.924C23.2013 104.724 25.158 107.115 25.158 118.091V126.943L5.84696 116.525C5.84696 116.525 1.86535 109.24 8.3868 100.389Z" fill="#242525"/>
<path d="M113.706 96.1312C111.881 94.5711 98.4877 88.515 84.3212 85.481L73.1406 89.2078L62.8917 94.7981V138.123H107.148L119.471 116.297C119.471 116.297 121.568 102.852 113.706 96.1312Z" fill="#3C3A3A"/>
<path d="M116.933 100.161C112.612 94.2977 112.74 92.2416 105.286 100.627L105.229 100.696C102.118 104.497 100.161 106.887 100.161 117.864V126.715L119.472 116.297C119.472 116.297 123.454 109.013 116.933 100.161Z" fill="#5D5B5B"/>
<rect x="70.8105" y="111.569" width="18.6343" height="26.0881" rx="4" fill="#5D5B5B"/>
<path d="M48.4482 66.8467H77.3315V86.8786L62.8899 94.7982L48.4482 85.0152V66.8467Z" fill="#FFAA7B"/>
<path d="M48.4482 66.8467H62.8899C62.8899 66.8467 64.7533 78.4931 61.0264 85.9469C59.6797 88.6404 56.8337 90.6055 56.8337 90.6055L48.4482 85.0152V66.8467Z" fill="#FC9460"/>
<path d="M48.9164 78.493C50.1594 82.2199 51.2451 84.549 53.1086 86.8783C54.972 89.2076 60.0965 92.9345 60.0965 92.9345C60.0965 92.9345 57.3011 94.7979 50.3134 101.32C47.5054 103.941 44.6077 96.956 42.8609 93.8663C37.2693 83.9755 40.0651 83.7109 41.9281 82.2199C44.6784 80.0189 48.4502 77.0954 48.9164 78.493Z" fill="#3C3A3A"/>
<path d="M48.9163 78.493C50.1593 82.2199 53.5731 87.8099 53.5731 87.8099C53.5731 87.8099 50.7795 87.8099 47.5176 90.6052C44.4751 93.2125 44.5211 97.1271 44.2573 96.6613C36.8697 83.6173 40.0649 83.7109 41.928 82.2199C44.6783 80.0189 48.4501 77.0954 48.9163 78.493Z" fill="#333232"/>
<path d="M77.3342 78.4287C76.106 82.1605 75.0295 84.4939 73.1754 86.8306C71.3212 89.1673 66.2116 92.9145 66.2116 92.9145C66.2116 92.9145 69.0143 94.7668 76.0279 101.261C78.8464 103.871 81.7163 96.8744 83.4507 93.7778C89.003 83.8648 86.2062 83.6113 84.3372 82.1277C81.5782 79.9376 77.7948 77.0293 77.3342 78.4287Z" fill="#5D5B5B"/>
<path d="M81.7189 41.5838C80.9138 37.24 80.4927 32 80.4927 32L72.7266 37.0002C72.7266 37.0002 71.0915 54.0843 72.7266 64.0848C73.8651 71.0481 78.4486 84.0857 80.4927 80.3355C82.1208 77.3484 81.274 74.5555 81.7189 71.1684C82.49 65.2975 84.7848 62.0874 84.9885 56.1678C85.1868 50.4043 82.7691 47.2505 81.7189 41.5838Z" fill="#996318"/>
<path d="M43.2811 41.5838C44.0862 37.24 44.5073 32 44.5073 32L52.2734 37.0002C52.2734 37.0002 53.9085 54.0843 52.2734 64.0848C51.1349 71.0481 46.5514 84.0857 44.5073 80.3355C42.8792 77.3484 43.726 74.5555 43.2811 71.1684C42.51 65.2975 40.2152 62.0874 40.0115 56.1678C39.8132 50.4043 42.2309 47.2505 43.2811 41.5838Z" fill="#996318"/>
</g>
<path d="M37.7395 42.8649C41.4664 41.5295 43.7953 46.1256 43.7953 46.1256V55.9086C43.7953 55.9086 41.001 57.7724 39.1376 56.8407C37.1849 55.8644 37.6007 54.046 37.2742 52.648C37.0566 51.7167 35.304 48.846 35.4099 47.0573C35.5262 45.0929 35.887 43.5287 37.7395 42.8649Z" fill="#FC9460"/>
<path d="M86.1892 42.8649C82.4624 41.5295 80.1334 46.1256 80.1334 46.1256V55.9086C80.1334 55.9086 82.9277 57.7724 84.7911 56.8407C86.7438 55.8644 86.328 54.046 86.6545 52.648C86.8721 51.7167 88.6247 48.846 88.5188 47.0573C88.4026 45.0929 88.0417 43.5287 86.1892 42.8649Z" fill="#FFAA7B"/>
<path d="M83.855 49.7407C83.855 61.8331 74.4693 81.419 62.8914 81.419C51.3135 81.419 41.9277 61.8331 41.9277 49.7407C41.9277 42.95 41.9406 27.4586 46.5863 23.056C50.2134 19.6187 57.3493 22.5897 62.4255 22.5897C67.5017 22.5897 75.5693 19.6183 79.1964 23.0555C83.8421 27.4581 83.855 42.95 83.855 49.7407Z" fill="#FFB48A"/>
<path d="M74 10.2128C74 16.6992 68.7421 24 62.2557 24C55.7693 24 50 16.6992 50 10.2128C50 3.72636 55.7693 0 62.2557 0C68.7421 0 74 3.72636 74 10.2128Z" fill="#996318"/>
<path d="M60.8766 5.20272C60.8766 11.6561 69.0099 24 62.4308 24C55.8517 24 50 16.7364 50 10.283C50 3.82969 55.8517 0.122327 62.4308 0.122327C63.9843 0.122327 60.8766 -1.25063 60.8766 5.20272Z" fill="#905A0F"/>
<path d="M61.7447 4C54.0748 3.99991 50 7.5 50 7.5L50.5106 10H72.9787L74 8C74 8 69.4043 4.00009 61.7447 4Z" fill="#0C0C0C"/>
<path d="M62.8914 81.5504C78.2647 79.8902 54.9718 77.095 54.9718 52.4045C54.9718 27.714 62.4255 23.5213 62.4255 23.5213C57.3011 22.5893 51.1452 20.084 47.518 23.5212C42.8723 27.9238 41.9277 43.0813 41.9277 49.872C41.9277 62.6534 51.7108 81.2877 62.8914 81.5504Z" fill="#FFAA7B"/>
<path d="M87.9903 31.5812C87.9903 39.1195 88.4292 47.0388 83.4046 42.8271C82.2269 41.8399 81.8071 38.44 81.1824 34.7408C80.565 31.0849 79.7473 27.1366 77.7999 24.9359C73.7527 20.3625 64.5523 23.9135 61.4951 23.9135C58.438 23.9135 50.1876 19.9737 46.719 24.9359C45.2752 27.0014 44.68 31.015 44.1714 34.7408C43.6613 38.4775 43.2382 41.9248 42.1333 42.8271C37.9704 46.2269 35 38.3596 35 31.5812C35 16.9008 46.8623 5 61.4951 5C76.128 5 87.9903 16.9008 87.9903 31.5812Z" fill="#996318"/>
<path d="M61 5C46.6406 5 35 16.7021 35 31.1374C35 37.8025 37.9149 45.5385 42 42.1955C43.0842 41.3082 43.4994 37.9185 44 34.2442C44.4991 30.5806 45.0832 26.634 46.5 24.603C49.9037 19.7237 58 23.5977 60.5 23.5977C60.5 23.5977 57 21.5872 57 15.0528C57 8.51849 61 5 61 5Z" fill="#905A0F"/>
</svg>
