<svg width="126" height="132" viewBox="0 0 126 132" fill="none" xmlns="http://www.w3.org/2000/svg">
<circle cx="62.8915" cy="68.1283" r="62.8915" fill="#F26F3B"/>
<path d="M102.487 80.2408C109.996 86.0547 125.037 79.2334 123.645 84.4335C116.462 111.263 91.9822 131.02 62.8874 131.02C33.7926 131.02 9.31221 111.263 2.13014 84.4335C0.738105 79.2334 15.5025 85.1774 21.4272 80.2408C35.4046 68.5942 27.949 50.8914 27.949 45.301C27.949 40.6424 28.8935 40.2446 28.881 33.1886C28.8594 21.0839 19.4914 21.8894 26.0842 17.1239C36.4313 9.64476 49.1446 5.23682 62.8874 5.23682C76.6302 5.23682 89.3435 9.64475 99.6906 17.1239C104.536 20.6261 94.2994 26.898 94.5692 33.1886C94.8702 40.2074 96.8985 41.1083 96.8985 45.301C96.8985 49.4938 88.9771 69.7807 102.487 80.2408Z" fill="#DE6637"/>
<mask id="mask0_328_258" style="mask-type:alpha" maskUnits="userSpaceOnUse" x="0" y="5" width="126" height="127">
<circle cx="62.8915" cy="68.1283" r="62.8915" fill="#D9D9D9"/>
</mask>
<g mask="url(#mask0_328_258)">
<path d="M4.65085 111.274C4.10066 101.054 10.2411 91.6563 19.8224 88.0558L31.5217 83.6594L38.7176 82.008C40.5518 81.587 42.4277 81.3745 44.3097 81.3745H84.0521C86.3989 81.3745 88.734 81.7049 90.9886 82.3561L95.5016 83.6594L106.471 88.1308C115.333 91.743 121.126 100.36 121.126 109.93C121.126 122.931 110.587 133.47 97.5856 133.47H28.0736C15.6088 133.47 5.32089 123.721 4.65085 111.274Z" fill="#242525"/>
<path d="M94.344 105.953C93.2974 112.195 94.3442 128.038 94.3442 128.038C94.3442 128.038 108.169 124.287 107.445 116.995C106.79 110.393 95.4427 99.4002 94.344 105.953Z" fill="#548BED"/>
<path d="M11.611 91.9378C13.436 90.3777 24.6921 85.2532 38.8586 82.2192L55.4381 91.9378C55.4381 91.9378 39.0034 90.1064 34.4744 99.229C31.3222 105.578 33.0769 126.249 33.0769 126.249L5.84654 112.104C5.84654 112.104 3.74949 98.6583 11.611 91.9378Z" fill="#333232"/>
<path d="M11.611 91.9378C13.436 90.3777 24.6921 85.2532 38.8586 82.2192L55.4381 91.9378C55.4381 91.9378 39.0034 90.1064 34.4744 99.229C31.3222 105.578 33.0769 126.249 33.0769 126.249L5.84654 112.104C5.84654 112.104 3.74949 98.6583 11.611 91.9378Z" fill="#0E0E0E"/>
<path d="M8.3868 95.968C12.707 90.1044 12.5798 88.0483 20.0336 96.4337L20.0903 96.5029C23.2013 100.304 25.158 102.694 25.158 113.67V122.522L5.84696 112.104C5.84696 112.104 1.86535 104.819 8.3868 95.968Z" fill="#242525"/>
<path d="M113.706 91.7103C111.881 90.1502 98.4877 84.0941 84.3212 81.0601L73.1406 84.7869L62.8917 90.3772V133.702H107.148L119.471 111.876C119.471 111.876 121.568 98.4309 113.706 91.7103Z" fill="#3C3A3A"/>
<path d="M116.933 95.7405C112.612 89.8768 112.74 87.8207 105.286 96.2061L105.229 96.2754C102.118 100.076 100.161 102.466 100.161 113.443V122.294L119.472 111.876C119.472 111.876 123.454 104.592 116.933 95.7405Z" fill="#5D5B5B"/>
<rect x="70.8105" y="107.148" width="18.6343" height="26.0881" rx="4" fill="#5D5B5B"/>
<path d="M48.4482 62.4258H77.3315V82.4577L62.8899 90.3773L48.4482 80.5943V62.4258Z" fill="#FFAA7B"/>
<path d="M48.4482 62.4258H62.8899C62.8899 62.4258 64.7533 74.0722 61.0264 81.526C59.6797 84.2195 56.8337 86.1846 56.8337 86.1846L48.4482 80.5943V62.4258Z" fill="#FC9460"/>
<path d="M48.9165 74.0721C50.1595 77.799 51.2452 80.1281 53.1086 82.4574C54.9721 84.7867 60.0965 88.5136 60.0965 88.5136C60.0965 88.5136 57.3012 90.377 50.3135 96.899C47.5055 99.5199 44.6078 92.5351 42.8611 89.4455C37.2695 79.5546 40.0653 79.29 41.9283 77.799C44.6786 75.598 48.4503 72.6745 48.9165 74.0721Z" fill="#3C3A3A"/>
<path d="M48.9163 74.0721C50.1593 77.799 53.5731 83.389 53.5731 83.389C53.5731 83.389 50.7795 83.389 47.5176 86.1843C44.4751 88.7916 44.5211 92.7062 44.2573 92.2404C36.8697 79.1964 40.0649 79.29 41.928 77.799C44.6783 75.598 48.4501 72.6745 48.9163 74.0721Z" fill="#333232"/>
<path d="M77.3341 74.0078C76.1059 77.7396 75.0294 80.073 73.1753 82.4097C71.3212 84.7464 66.2116 88.4936 66.2116 88.4936C66.2116 88.4936 69.0143 90.3459 76.0278 96.8401C78.8462 99.4498 81.7161 92.4535 83.4505 89.3569C89.0028 79.4439 86.206 79.1904 84.337 77.7068C81.578 75.5167 77.7946 72.6084 77.3341 74.0078Z" fill="#5D5B5B"/>
</g>
<path d="M37.7395 38.444C41.4664 37.1086 43.7953 41.7047 43.7953 41.7047V51.4877C43.7953 51.4877 41.001 53.3516 39.1376 52.4198C37.1849 51.4435 37.6007 49.6251 37.2742 48.2271C37.0566 47.2958 35.304 44.4251 35.4099 42.6364C35.5262 40.672 35.887 39.1078 37.7395 38.444Z" fill="#FC9460"/>
<path d="M86.1892 38.444C82.4624 37.1086 80.1334 41.7047 80.1334 41.7047V51.4877C80.1334 51.4877 82.9277 53.3516 84.7911 52.4198C86.7438 51.4435 86.328 49.6251 86.6545 48.2271C86.8721 47.2958 88.6247 44.4251 88.5188 42.6364C88.4026 40.672 88.0417 39.1078 86.1892 38.444Z" fill="#FFAA7B"/>
<path d="M83.855 45.3198C83.855 57.4122 74.4693 76.9981 62.8914 76.9981C51.3135 76.9981 41.9277 57.4122 41.9277 45.3198C41.9277 38.5291 41.9406 23.0377 46.5863 18.6351C50.2134 15.1978 57.3493 18.1688 62.4255 18.1688C67.5017 18.1688 75.5693 15.1974 79.1964 18.6346C83.8421 23.0372 83.855 38.5291 83.855 45.3198Z" fill="#FFB48A"/>
<path d="M62.8914 77.1295C78.2647 75.4693 54.9718 72.6741 54.9718 47.9836C54.9718 23.2931 62.4255 19.1004 62.4255 19.1004C57.3011 18.1684 51.1452 15.6631 47.518 19.1003C42.8723 23.5029 41.9277 38.6604 41.9277 45.4511C41.9277 58.2325 51.7108 76.8668 62.8914 77.1295Z" fill="#FFAA7B"/>
<path d="M87.6198 30.2819C87.6198 37.1518 88.9528 42.0397 84.3588 38.2014C83.282 37.3018 81.669 35.9824 81.0978 32.6111C80.5333 29.2794 82.4953 24.113 79.7002 20.9647C75.5642 16.3061 68.5196 20.033 62.9283 20.033C57.337 20.033 52.4762 16.5354 47.5548 20.9647C43.3632 24.7371 45.2247 29.2156 44.7597 32.6111C44.2933 36.0166 43.4405 37.3791 42.4304 38.2014C38.6242 41.2999 39.1703 39.2544 39.1703 33.077C39.1703 27.3434 32.5765 18.6354 36.841 15.3744C40.9267 12.2503 44.2948 12.1134 47.09 8.85236C48.2879 6.98893 51.2827 0.00104557 65.2586 0.00104557C67.3132 0.00104557 76.2858 -0.0698236 78.7683 0.931717C81.1785 1.90405 75.0415 3.26101 79.2342 5.12549C84.3888 8.00569 88.1653 11.1272 90.8808 17.7037C92.7537 22.2395 87.6198 25.7628 87.6198 30.2819Z" fill="#5F3905"/>
<path d="M60.5616 20.0325C56.8721 20.0325 52.4762 16.5358 47.5548 20.9651C43.3632 24.7376 45.2247 29.2161 44.7597 32.6116C44.2933 36.017 43.4405 37.3795 42.4304 38.2019C38.6242 41.3003 39.1703 39.2548 39.1703 33.0774C39.1703 27.3438 32.5765 18.6358 36.841 15.3748C40.9267 12.2507 44.2948 12.1138 47.09 8.85278C48.2879 6.98935 51.2827 0.00146484 65.2586 0.00146484C67.3132 0.00146484 58.888 3.81945 58.2323 11.647C57.5767 19.4746 64.2512 20.0325 60.5616 20.0325Z" fill="#472A03"/>
</svg>
