<svg width="127" height="132" viewBox="0 0 127 132" fill="none" xmlns="http://www.w3.org/2000/svg">
<circle cx="63.3621" cy="68.638" r="63.3621" fill="#F26F3B"/>
<path d="M103.255 80.841C110.821 86.6985 125.974 79.8261 124.571 85.0652C117.335 112.095 92.6718 132 63.3593 132C34.0468 132 9.38324 112.095 2.14743 85.0652C0.74498 79.8261 15.6199 85.8146 21.5889 80.841C35.6709 69.1073 28.1595 51.2721 28.1595 45.6399C28.1595 40.9464 29.1111 40.5456 29.0984 33.4368C29.0767 21.2415 19.6386 22.0531 26.2808 17.2519C36.7052 9.7168 49.5136 5.27588 63.3593 5.27588C77.2049 5.27588 90.0134 9.7168 100.438 17.2519C105.319 20.7804 95.0064 27.0992 95.2782 33.4368C95.5814 40.5081 97.6249 41.4157 97.6249 45.6399C97.6249 49.864 89.6442 70.3027 103.255 80.841Z" fill="#DE6637"/>
<mask id="mask0_328_343" style="mask-type:alpha" maskUnits="userSpaceOnUse" x="0" y="5" width="127" height="127">
<circle cx="63.3621" cy="68.638" r="63.3621" fill="#D9D9D9"/>
</mask>
<g mask="url(#mask0_328_343)">
<path d="M10.7949 110.355C10.7949 99.9518 18.9583 91.3784 29.3495 90.8691C31.6674 90.7555 33.9465 90.2292 36.0796 89.315L37.9941 88.4945C41.106 87.1608 44.4564 86.4731 47.8421 86.4731H78.6475C82.1844 86.4731 85.6811 87.2237 88.9066 88.6751L90.2902 89.2977C92.3457 90.2227 94.5552 90.7577 96.8061 90.8756C106.473 91.3817 114.052 99.3675 114.052 109.048V113.991C114.052 126.918 103.572 137.397 90.6455 137.397H34.1631C21.2572 137.397 10.7949 126.935 10.7949 114.029V110.355Z" fill="#3C3A3A"/>
<path d="M90.0621 110.499C89.1246 116.6 90.0623 132.088 90.0623 132.088C90.0623 132.088 102.445 128.422 101.797 121.293C101.21 114.839 91.0463 104.094 90.0621 110.499Z" fill="#242525"/>
<path d="M32.8554 90.2281C36.0564 90.2281 39.8955 87.8813 39.8955 87.8813L53.5066 93.0442C53.5066 93.0442 38.7892 96.3296 34.7325 105.247C31.909 111.454 32.8554 129.653 32.8554 129.653L10.7954 116.512C10.7954 116.512 8.91817 103.37 15.9587 96.799C20.9167 92.1717 30.0394 90.2281 32.8554 90.2281Z" fill="#242525"/>
<path d="M48.3449 76.1475C54.4449 76.1475 53.9771 80.4718 63.3647 80.3716C71.8124 80.2814 71.3415 76.1474 78.3833 76.1475C81.1983 76.1475 86.3607 82.249 86.3607 87.4118C86.3607 91.1666 71.8458 93.9633 63.3647 93.9827C54.7014 94.0025 39.4254 90.6973 39.4258 87.4118C39.4264 81.7535 45.9967 76.1475 48.3449 76.1475Z" fill="#242525"/>
<path d="M48.3449 76.1475C54.4449 76.1475 55.3836 80.3716 63.3647 80.3716C64.7706 80.3716 54.3005 78.9636 52.5675 86.4731C51.3761 91.636 53.9756 93.044 53.9756 93.044C53.9756 93.044 39.4254 90.6973 39.4258 87.4118C39.4264 81.7535 45.9967 76.1475 48.3449 76.1475Z" fill="#0C0C0C"/>
</g>
<path d="M38.4914 42.1304C42.2461 40.785 44.5926 45.4155 44.5926 45.4155V55.2718C44.5926 55.2718 41.7773 57.1496 39.8999 56.2109C37.9326 55.2273 38.3515 53.3952 38.0225 51.9868C37.8034 51.0485 36.0376 48.1563 36.1443 46.3542C36.2614 44.3751 36.625 42.7992 38.4914 42.1304Z" fill="#FC9460"/>
<path d="M87.2987 42.1304C83.5439 40.785 81.1975 45.4155 81.1975 45.4155V55.2718C81.1975 55.2718 84.0127 57.1496 85.8901 56.2109C87.8574 55.2273 87.4385 53.3952 87.7675 51.9868C87.9867 51.0485 89.7524 48.1563 89.6458 46.3542C89.5286 44.3751 89.1651 42.7992 87.2987 42.1304Z" fill="#FFAA7B"/>
<path d="M83.5447 67.2301C82.6203 62.3373 82.1367 56.4351 82.1367 56.4351L73.2191 62.0672C73.2191 62.0672 71.3416 81.3105 73.2191 92.5749C74.5264 100.418 79.7896 115.104 82.1367 110.88C84.0062 107.515 83.0339 104.369 83.5447 100.554C84.4301 93.9409 87.0653 90.3251 87.2992 83.6573C87.5269 77.1654 84.7507 73.613 83.5447 67.2301Z" fill="#823C0D"/>
<path d="M40.7678 64.795C41.6922 59.9022 42.1758 54 42.1758 54L51.0934 59.6322C51.0934 59.6322 52.9709 78.8755 51.0934 90.1399C49.7861 97.9832 44.5229 112.669 42.1758 108.444C40.3063 105.08 41.2786 101.934 40.7678 98.1188C39.8824 91.5059 37.2472 87.8901 37.0133 81.2222C36.7856 74.7303 39.5618 71.178 40.7678 64.795Z" fill="#823C0D"/>
<path d="M84.0138 49.8657C84.0138 62.0488 74.5578 81.7814 62.8932 81.7814C51.2285 81.7814 41.7725 62.0488 41.7725 49.8657C41.7725 43.0242 44.1322 30.8321 48.8127 26.3966C52.467 22.9336 57.7789 26.3983 62.8932 26.3983C68.0074 26.3983 73.7887 22.9353 77.443 26.3983C82.1235 30.8338 84.0138 43.0242 84.0138 49.8657Z" fill="#FFB48A"/>
<path d="M62.8932 81.7814C74.5578 81.7814 53.5062 77.0862 53.5062 52.2107C53.5062 27.3352 64.7705 25.9274 64.7705 25.9274C59.6563 25.9274 52.467 22.9335 48.8127 26.3966C44.1322 30.8321 41.7725 43.0241 41.7725 49.8657C41.7725 62.0488 51.2285 81.7814 62.8932 81.7814Z" fill="#FFAA7B"/>
<path d="M73.6883 9.49977C73.6883 15.4617 68.8555 22.1722 62.8936 22.1722C56.9317 22.1722 51.6289 15.4617 51.6289 9.49977C51.6289 3.53784 56.9317 0.112793 62.8936 0.112793C68.8555 0.112793 73.6883 3.53784 73.6883 9.49977Z" fill="#823C0D"/>
<path d="M61.4852 4.80653C61.4852 10.7685 68.8555 22.1724 62.8936 22.1724C56.9317 22.1724 51.6289 15.4619 51.6289 9.49999C51.6289 3.53806 56.9317 0.113012 62.8936 0.113012C64.3013 0.113012 61.4852 -1.15539 61.4852 4.80653Z" fill="#722E00"/>
<path d="M62.4239 8.0918C55.3742 8.09169 51.6289 11.3772 51.6289 11.3772L52.0983 14.6627H72.7496L73.6883 11.3772C73.6883 11.3772 69.4642 8.0919 62.4239 8.0918Z" fill="#0C0C0C"/>
<path d="M86.8298 34.3754C86.8298 41.2968 87.2341 48.5681 82.6057 44.701C81.5208 43.7946 81.1342 40.673 80.5587 37.2765C79.99 33.9197 79.2368 30.2945 77.4429 28.2738C73.7148 24.0747 65.2398 27.3351 62.4237 27.3351C59.6076 27.3351 52.0077 23.7177 48.8126 28.2738C47.4826 30.1703 46.9344 33.8555 46.4659 37.2765C45.9959 40.7074 45.6062 43.8726 44.5885 44.701C40.7537 47.8227 38.0176 40.5991 38.0176 34.3754C38.0176 20.8962 48.9446 9.96924 62.4237 9.96924C75.9028 9.96924 86.8298 20.8962 86.8298 34.3754Z" fill="#823C0D"/>
<path d="M62.4237 9.96924C48.9446 9.96924 38.0176 20.8962 38.0176 34.3754C38.0176 40.5991 40.7537 47.8227 44.5885 44.701C45.6062 43.8726 45.9959 40.7074 46.4659 37.2765C46.9344 33.8555 47.4826 30.1703 48.8126 28.2738C52.0077 23.7177 59.6076 27.3351 61.9544 27.3351C61.9544 27.3351 58.6689 25.4577 58.6689 19.3562C58.6689 13.2547 62.4237 9.96924 62.4237 9.96924Z" fill="#722E00"/>
</svg>
